<svg xmlns="http://www.w3.org/2000/svg" xmlns:xlink="http://www.w3.org/1999/xlink" width="120" height="28" viewBox="0 0 120 28">
    <defs>
        <path id="prefix__a" d="M0.267 0.135L15.724 0.135 15.724 22.769 0.267 22.769z"/>
    </defs>
    <g fill="none" fill-rule="evenodd">
        <g transform="translate(19.692 5.102)">
            <mask id="prefix__b" fill="#fff">
                <use xlink:href="#prefix__a"/>
            </mask>
            <path fill="#FFF" d="M4.564 8.088c0 1.681.326 2.912.977 3.692.652.782 1.455 1.172 2.41 1.172 1.024 0 1.89-.4 2.596-1.201.706-.8 1.06-1.987 1.06-3.559 0-1.641-.339-2.86-1.015-3.655-.677-.796-1.532-1.194-2.566-1.194-1.005 0-1.833.39-2.485 1.172-.651.78-.977 1.972-.977 3.573M.819 17.383l4.79.582c.079.557.263.94.551 1.149.398.298 1.025.448 1.88.448 1.094 0 1.915-.165 2.462-.493.368-.219.647-.572.836-1.06.13-.348.194-.99.194-1.924v-2.313c-1.254 1.711-2.835 2.567-4.745 2.567-2.129 0-3.815-.9-5.058-2.7C.754 12.215.267 10.444.267 8.326c0-2.656.639-4.685 1.917-6.088C3.462.837 5.051.135 6.951.135c1.96 0 3.576.86 4.85 2.581V.493h3.923v14.22c0 1.87-.154 3.267-.462 4.192-.309.925-.741 1.65-1.298 2.178-.558.528-1.3.94-2.23 1.239-.93.298-2.107.447-3.53.447-2.685 0-4.59-.46-5.714-1.38-1.124-.92-1.686-2.086-1.686-3.499 0-.14.005-.308.015-.507" mask="url(#prefix__b)"/>
        </g>
        <path fill="#FFF" d="M48.979 12.16c-.03-1.214-.343-2.136-.94-2.768-.597-.631-1.323-.947-2.178-.947-.916 0-1.671.333-2.268 1-.597.666-.89 1.571-.88 2.715h6.266zm-.239 4.237l4.178.701c-.537 1.532-1.385 2.699-2.544 3.5-1.159.8-2.609 1.2-4.35 1.2-2.755 0-4.794-.9-6.116-2.7-1.045-1.442-1.567-3.263-1.567-5.461 0-2.626.686-4.682 2.059-6.17 1.372-1.486 3.108-2.23 5.207-2.23 2.357 0 4.217.778 5.58 2.335 1.363 1.557 2.014 3.942 1.955 7.154H42.638c.03 1.244.368 2.211 1.014 2.902.647.692 1.453 1.037 2.417 1.037.657 0 1.209-.179 1.657-.537.447-.358.785-.935 1.014-1.73zM70.971 21.44H66.78v-8.086c0-1.711-.09-2.818-.269-3.32-.179-.502-.47-.893-.872-1.171-.403-.279-.888-.418-1.455-.418-.726 0-1.378.2-1.955.597-.577.398-.972.925-1.186 1.581-.214.657-.32 1.87-.32 3.64v7.177h-4.193V5.595h3.894v2.328c1.382-1.79 3.123-2.686 5.222-2.686.925 0 1.77.167 2.537.5.765.333 1.345.758 1.737 1.275.393.518.667 1.105.821 1.761.154.657.231 1.597.231 2.82v9.847zM89.04 10.28l-4.133.746c-.14-.825-.455-1.447-.947-1.865-.493-.418-1.132-.626-1.918-.626-1.044 0-1.877.36-2.499 1.081-.622.722-.933 1.927-.933 3.618 0 1.88.316 3.208.948 3.984.632.776 1.48 1.164 2.544 1.164.796 0 1.447-.226 1.955-.68.507-.452.865-1.23 1.074-2.334l4.118.701c-.428 1.89-1.248 3.318-2.462 4.282-1.214.965-2.84 1.448-4.879 1.448-2.318 0-4.165-.732-5.542-2.194-1.379-1.462-2.067-3.486-2.067-6.072 0-2.616.69-4.653 2.074-6.11 1.382-1.457 3.252-2.186 5.61-2.186 1.93 0 3.463.415 4.602 1.246 1.14.83 1.958 2.096 2.455 3.797M100.96 13.831c-.536.18-1.387.393-2.55.642-1.164.248-1.925.492-2.283.73-.547.389-.82.88-.82 1.478 0 .587.218 1.094.656 1.522.437.427.994.641 1.67.641.757 0 1.478-.248 2.165-.746.507-.378.84-.84.999-1.387.11-.358.164-1.04.164-2.044v-.836zm-5.609-3.402l-3.805-.686c.428-1.532 1.164-2.666 2.209-3.402 1.044-.736 2.595-1.104 4.655-1.104 1.87 0 3.262.222 4.177.664.915.443 1.56 1.005 1.932 1.686.373.681.56 1.932.56 3.752l-.045 4.894c0 1.393.068 2.42.202 3.081.134.662.385 1.37.753 2.126h-4.148c-.109-.278-.244-.69-.402-1.238-.07-.249-.12-.413-.15-.493-.716.697-1.482 1.22-2.297 1.567-.816.348-1.687.522-2.612.522-1.631 0-2.917-.442-3.857-1.327-.94-.886-1.41-2.005-1.41-3.358 0-.895.214-1.693.642-2.394.428-.702 1.027-1.238 1.798-1.612.771-.373 1.882-.698 3.335-.977 1.96-.368 3.317-.71 4.073-1.03v-.417c0-.806-.199-1.38-.597-1.723-.398-.343-1.149-.515-2.253-.515-.746 0-1.328.147-1.746.44-.417.293-.756.808-1.014 1.544zM116.478 5.595v3.342h-2.865v6.386c0 1.293.028 2.047.082 2.26.055.215.18.39.374.53.193.14.43.209.708.209.388 0 .95-.134 1.686-.403l.358 3.253c-.975.418-2.079.626-3.312.626-.756 0-1.437-.126-2.044-.38-.608-.254-1.052-.582-1.336-.985-.283-.403-.48-.947-.589-1.634-.09-.487-.134-1.472-.134-2.954V8.937h-1.925V5.595h1.925V2.447L113.613 0v5.595h2.865zM4.797 7.706c0 1.325-1.074 2.399-2.398 2.399C1.074 10.105 0 9.03 0 7.706 0 6.382 1.074 5.308 2.4 5.308c1.324 0 2.398 1.074 2.398 2.398M4.797 13.483c0 1.325-1.074 2.398-2.398 2.398C1.074 15.881 0 14.808 0 13.483c0-1.324 1.074-2.398 2.399-2.398 1.324 0 2.398 1.074 2.398 2.398M4.797 19.26c0 1.325-1.074 2.398-2.398 2.398C1.074 21.658 0 20.585 0 19.26 0 17.935 1.074 16.86 2.4 16.86c1.324 0 2.398 1.074 2.398 2.399M8.168 5.238c1.325 0 2.398 1.074 2.398 2.399s-1.073 2.398-2.398 2.398c-1.325 0-2.398-1.073-2.398-2.398 0-1.325 1.073-2.399 2.398-2.399M13.944 5.238c1.325 0 2.399 1.074 2.399 2.399s-1.074 2.398-2.399 2.398c-1.324 0-2.398-1.073-2.398-2.398 0-1.325 1.074-2.399 2.398-2.399M8.168 11.085c1.325 0 2.398 1.073 2.398 2.398 0 1.325-1.073 2.399-2.398 2.399-1.325 0-2.398-1.074-2.398-2.399s1.073-2.398 2.398-2.398"/>
    </g>
</svg>
