<svg xmlns="http://www.w3.org/2000/svg" width="45" height="45" viewBox="0 0 45 45">
    <g fill="none" fill-rule="evenodd">
        <g>
            <g>
                <g transform="translate(-350.000000, -239.000000) translate(30.000000, 36.000000) translate(320.000000, 203.000000)">
                    <circle cx="22.5" cy="22.5" r="22.5" fill="#F5F5F5" fill-opacity=".9"/>
                    <path fill="#333" d="M11.662 17.295c.543-.554 1.421-.56 1.972-.017l.017.017 7.443 7.599 7.443-7.599c.543-.554 1.421-.56 1.972-.017l.017.017c.543.555.549 1.451.016 2.013l-.016.018-8.438 8.613c-.543.555-1.421.56-1.972.017l-.017-.017-8.437-8.613c-.55-.561-.55-1.47 0-2.03z" transform="translate(21.093750, 22.617188) rotate(-270.000000) translate(-21.093750, -22.617188)"/>
                </g>
            </g>
        </g>
    </g>
</svg>
