<svg xmlns="http://www.w3.org/2000/svg" width="24" height="24" viewBox="0 0 24 24">
    <g fill="none" fill-rule="evenodd">
        <g>
            <g>
                <g transform="translate(-654 -2005) translate(419 2005) translate(235)">
                    <circle cx="12" cy="12" r="12" fill="#333"/>
                    <path fill="#E8E8E8" d="M5.763 17.832h2.743V9.578H5.763v8.254zM7.153 5.6c-.939 0-1.553.616-1.553 1.426 0 .792.596 1.426 1.517 1.426h.018c.957 0 1.552-.634 1.552-1.426-.018-.81-.595-1.426-1.534-1.426zM18.4 13.099v4.733h-2.744v-4.416c0-1.109-.396-1.866-1.39-1.866-.758 0-1.208.51-1.407 1.003-.073.177-.091.422-.091.669v4.61h-2.744s.036-7.48 0-8.254h2.744v1.17l-.018.027h.018v-.027c.365-.561 1.015-1.364 2.473-1.364 1.805 0 3.159 1.18 3.159 3.715z"/>
                </g>
            </g>
        </g>
    </g>
</svg>
