<svg xmlns="http://www.w3.org/2000/svg" xmlns:xlink="http://www.w3.org/1999/xlink" width="24" height="24" viewBox="0 0 24 24">
    <defs>
        <path id="prefix__a" d="M0 0L20.917 0 20.917 21.662 0 21.662z"/>
    </defs>
    <g fill="none" fill-rule="evenodd" transform="translate(2 1)">
        <mask id="prefix__b" fill="#fff">
            <use xlink:href="#prefix__a"/>
        </mask>
        <path fill="#FFF" d="M8.739 2.274c3.568 0 6.46 2.892 6.46 6.46s-2.892 6.46-6.46 6.46c-3.567 0-6.46-2.892-6.46-6.46.005-3.566 2.895-6.456 6.46-6.46zm11.844 17.438l-5.153-5.359c3.102-3.696 2.62-9.207-1.077-12.309-3.696-3.102-9.207-2.62-12.308 1.077-3.102 3.696-2.62 9.207 1.077 12.31 1.574 1.32 3.563 2.044 5.618 2.043 1.793.005 3.543-.547 5.008-1.58l5.19 5.4c.427.463 1.148.494 1.612.067.462-.426.493-1.147.066-1.61l-.034-.037v-.002z" mask="url(#prefix__b)"/>
    </g>
</svg>
